<mxfile host="app.diagrams.net" modified="2024-03-16T12:54:45.916Z" agent="Mozilla/5.0 (Windows NT 10.0; Win64; x64) AppleWebKit/537.36 (KHTML, like Gecko) Chrome/122.0.0.0 Safari/537.36 Edg/122.0.0.0" etag="DQJhFRxh8CJnooftthXm" version="24.0.6" type="google">
  <diagram name="Page-1" id="ot4pLYPO8OssK1NQqpq3">
    <mxGraphModel grid="1" page="1" gridSize="10" guides="1" tooltips="1" connect="1" arrows="1" fold="1" pageScale="1" pageWidth="827" pageHeight="1169" math="0" shadow="0">
      <root>
        <mxCell id="0" />
        <mxCell id="1" parent="0" />
        <mxCell id="Z6v8BIGGvw4Y6wEv693H-4" value="" style="edgeStyle=orthogonalEdgeStyle;rounded=0;orthogonalLoop=1;jettySize=auto;html=1;" edge="1" parent="1" source="Z6v8BIGGvw4Y6wEv693H-1" target="Z6v8BIGGvw4Y6wEv693H-3">
          <mxGeometry relative="1" as="geometry" />
        </mxCell>
        <mxCell id="Z6v8BIGGvw4Y6wEv693H-1" value="Start" style="ellipse;whiteSpace=wrap;html=1;" vertex="1" parent="1">
          <mxGeometry x="330" width="120" height="80" as="geometry" />
        </mxCell>
        <mxCell id="Z6v8BIGGvw4Y6wEv693H-2" value="&lt;br&gt;&lt;b&gt;&lt;br&gt;&lt;span class=&quot;fontstyle0&quot;&gt;Prototype&lt;/span&gt;&lt;span class=&quot;fontstyle1&quot;&gt;: &lt;/span&gt;&lt;span class=&quot;fontstyle3&quot;&gt;int so_nghiem_ptb2(float a, float b, float c)&lt;/span&gt;&lt;/b&gt;&lt;div&gt;&lt;br/&gt;&lt;/div&gt;" style="text;html=1;align=center;verticalAlign=middle;whiteSpace=wrap;rounded=0;" vertex="1" parent="1">
          <mxGeometry width="310" height="70" as="geometry" />
        </mxCell>
        <mxCell id="Z6v8BIGGvw4Y6wEv693H-6" value="" style="edgeStyle=orthogonalEdgeStyle;rounded=0;orthogonalLoop=1;jettySize=auto;html=1;" edge="1" parent="1" source="Z6v8BIGGvw4Y6wEv693H-3" target="Z6v8BIGGvw4Y6wEv693H-5">
          <mxGeometry relative="1" as="geometry" />
        </mxCell>
        <mxCell id="Z6v8BIGGvw4Y6wEv693H-3" value="Input x, y" style="shape=parallelogram;perimeter=parallelogramPerimeter;whiteSpace=wrap;html=1;fixedSize=1;" vertex="1" parent="1">
          <mxGeometry x="300" y="140" width="180" height="70" as="geometry" />
        </mxCell>
        <mxCell id="Z6v8BIGGvw4Y6wEv693H-9" value="Yes" style="edgeStyle=orthogonalEdgeStyle;rounded=0;orthogonalLoop=1;jettySize=auto;html=1;" edge="1" parent="1" source="Z6v8BIGGvw4Y6wEv693H-5" target="Z6v8BIGGvw4Y6wEv693H-8">
          <mxGeometry relative="1" as="geometry" />
        </mxCell>
        <mxCell id="Z6v8BIGGvw4Y6wEv693H-11" value="No" style="edgeStyle=orthogonalEdgeStyle;rounded=0;orthogonalLoop=1;jettySize=auto;html=1;" edge="1" parent="1" source="Z6v8BIGGvw4Y6wEv693H-5" target="Z6v8BIGGvw4Y6wEv693H-10">
          <mxGeometry relative="1" as="geometry" />
        </mxCell>
        <mxCell id="Z6v8BIGGvw4Y6wEv693H-5" value="a&amp;lt;0 || b&amp;lt;0" style="rhombus;whiteSpace=wrap;html=1;" vertex="1" parent="1">
          <mxGeometry x="290" y="285" width="200" height="80" as="geometry" />
        </mxCell>
        <mxCell id="Z6v8BIGGvw4Y6wEv693H-22" value="" style="edgeStyle=orthogonalEdgeStyle;rounded=0;orthogonalLoop=1;jettySize=auto;html=1;entryX=0.5;entryY=0;entryDx=0;entryDy=0;" edge="1" parent="1" source="Z6v8BIGGvw4Y6wEv693H-8" target="Z6v8BIGGvw4Y6wEv693H-23">
          <mxGeometry relative="1" as="geometry">
            <mxPoint x="110" y="765" as="targetPoint" />
          </mxGeometry>
        </mxCell>
        <mxCell id="Z6v8BIGGvw4Y6wEv693H-8" value="Display Lỗi nhập dữ liệu" style="shape=parallelogram;perimeter=parallelogramPerimeter;whiteSpace=wrap;html=1;fixedSize=1;" vertex="1" parent="1">
          <mxGeometry x="10" y="290" width="200" height="70" as="geometry" />
        </mxCell>
        <mxCell id="Z6v8BIGGvw4Y6wEv693H-15" value="" style="edgeStyle=orthogonalEdgeStyle;rounded=0;orthogonalLoop=1;jettySize=auto;html=1;" edge="1" parent="1" source="Z6v8BIGGvw4Y6wEv693H-10" target="Z6v8BIGGvw4Y6wEv693H-14">
          <mxGeometry relative="1" as="geometry" />
        </mxCell>
        <mxCell id="Z6v8BIGGvw4Y6wEv693H-10" value="x=x+y" style="whiteSpace=wrap;html=1;" vertex="1" parent="1">
          <mxGeometry x="290" y="420" width="200" height="60" as="geometry" />
        </mxCell>
        <mxCell id="Z6v8BIGGvw4Y6wEv693H-17" value="" style="edgeStyle=orthogonalEdgeStyle;rounded=0;orthogonalLoop=1;jettySize=auto;html=1;" edge="1" parent="1" source="Z6v8BIGGvw4Y6wEv693H-14" target="Z6v8BIGGvw4Y6wEv693H-16">
          <mxGeometry relative="1" as="geometry" />
        </mxCell>
        <mxCell id="Z6v8BIGGvw4Y6wEv693H-14" value="x=x-y" style="whiteSpace=wrap;html=1;" vertex="1" parent="1">
          <mxGeometry x="290" y="530" width="200" height="60" as="geometry" />
        </mxCell>
        <mxCell id="Z6v8BIGGvw4Y6wEv693H-19" value="" style="edgeStyle=orthogonalEdgeStyle;rounded=0;orthogonalLoop=1;jettySize=auto;html=1;" edge="1" parent="1" source="Z6v8BIGGvw4Y6wEv693H-16" target="Z6v8BIGGvw4Y6wEv693H-18">
          <mxGeometry relative="1" as="geometry" />
        </mxCell>
        <mxCell id="Z6v8BIGGvw4Y6wEv693H-16" value="y=x-y&lt;span style=&quot;white-space: pre;&quot;&gt;&#x9;&lt;/span&gt;" style="whiteSpace=wrap;html=1;" vertex="1" parent="1">
          <mxGeometry x="290" y="640" width="200" height="60" as="geometry" />
        </mxCell>
        <mxCell id="Z6v8BIGGvw4Y6wEv693H-21" value="" style="edgeStyle=orthogonalEdgeStyle;rounded=0;orthogonalLoop=1;jettySize=auto;html=1;entryX=1;entryY=0.563;entryDx=0;entryDy=0;entryPerimeter=0;" edge="1" parent="1" source="Z6v8BIGGvw4Y6wEv693H-18" target="Z6v8BIGGvw4Y6wEv693H-23">
          <mxGeometry relative="1" as="geometry">
            <mxPoint x="150" y="805" as="targetPoint" />
          </mxGeometry>
        </mxCell>
        <mxCell id="Z6v8BIGGvw4Y6wEv693H-18" value="Display x, y" style="shape=parallelogram;perimeter=parallelogramPerimeter;whiteSpace=wrap;html=1;fixedSize=1;" vertex="1" parent="1">
          <mxGeometry x="310" y="770" width="160" height="70" as="geometry" />
        </mxCell>
        <mxCell id="Z6v8BIGGvw4Y6wEv693H-23" value="End" style="ellipse;whiteSpace=wrap;html=1;" vertex="1" parent="1">
          <mxGeometry x="50" y="760" width="120" height="80" as="geometry" />
        </mxCell>
      </root>
    </mxGraphModel>
  </diagram>
</mxfile>
